# MagicaVoxel @ Ephtracy

# group
o 

# material
mtllib Block.mtl
usemtl palette

# normals
vn -1 0 0
vn 1 0 0
vn 0 0 1
vn 0 0 -1
vn 0 -1 0
vn 0 1 0

# texcoords
vt 0.958984 0.5
vt 0.970703 0.5

# verts
v -2 0 2
v -2 0 1
v -2 0 -1
v -2 0 -2
v -2 0.8 2
v -2 0.8 1
v -2 0.8 -1
v -2 0.8 -2
v 2 0 2
v 2 0 1
v 2 0 -1
v 2 0 -2
v 2 0.8 2
v 2 0.8 1
v 2 0.8 -1
v 2 0.8 -2
v -2 0 2
v -2 0.8 2
v -1 0 2
v -1 0.8 2
v 1 0 2
v 1 0.8 2
v 2 0 2
v 2 0.8 2
v -2 0 -2
v -2 0.8 -2
v -1 0 -2
v -1 0.8 -2
v 1 0 -2
v 1 0.8 -2
v 2 0 -2
v 2 0.8 -2
v -2 0 2
v -1 0 2
v 1 0 2
v 2 0 2
v -2 0 1
v -1 0 1
v 1 0 1
v 2 0 1
v -2 0 -1
v -1 0 -1
v 1 0 -1
v 2 0 -1
v -2 0 -2
v -1 0 -2
v 1 0 -2
v 2 0 -2
v -2 0.8 2
v -1 0.8 2
v 1 0.8 2
v 2 0.8 2
v -2 0.8 1
v -1 0.8 1
v 1 0.8 1
v 2 0.8 1
v -2 0.8 -1
v -1 0.8 -1
v 1 0.8 -1
v 2 0.8 -1
v -2 0.8 -2
v -1 0.8 -2
v 1 0.8 -2
v 2 0.8 -2

# faces
f 5/1/1 2/1/1 1/1/1
f 6/2/1 3/2/1 2/2/1
f 6/1/1 2/1/1 5/1/1
f 7/1/1 4/1/1 3/1/1
f 7/2/1 3/2/1 6/2/1
f 8/1/1 4/1/1 7/1/1
f 9/1/2 10/1/2 13/1/2
f 10/2/2 11/2/2 14/2/2
f 13/1/2 10/1/2 14/1/2
f 11/1/2 12/1/2 15/1/2
f 14/2/2 11/2/2 15/2/2
f 15/1/2 12/1/2 16/1/2
f 19/1/3 18/1/3 17/1/3
f 20/1/3 18/1/3 19/1/3
f 21/2/3 20/2/3 19/2/3
f 22/2/3 20/2/3 21/2/3
f 23/1/3 22/1/3 21/1/3
f 24/1/3 22/1/3 23/1/3
f 25/1/4 26/1/4 27/1/4
f 27/1/4 26/1/4 28/1/4
f 27/2/4 28/2/4 29/2/4
f 29/2/4 28/2/4 30/2/4
f 29/1/4 30/1/4 31/1/4
f 31/1/4 30/1/4 32/1/4
f 37/1/5 34/1/5 33/1/5
f 38/2/5 35/2/5 34/2/5
f 38/1/5 34/1/5 37/1/5
f 39/1/5 36/1/5 35/1/5
f 39/2/5 35/2/5 38/2/5
f 40/1/5 36/1/5 39/1/5
f 41/2/5 38/2/5 37/2/5
f 41/2/5 39/2/5 38/2/5
f 41/2/5 40/2/5 39/2/5
f 42/2/5 40/2/5 41/2/5
f 43/2/5 40/2/5 42/2/5
f 44/2/5 40/2/5 43/2/5
f 45/1/5 42/1/5 41/1/5
f 46/2/5 43/2/5 42/2/5
f 46/1/5 42/1/5 45/1/5
f 47/1/5 44/1/5 43/1/5
f 47/2/5 43/2/5 46/2/5
f 48/1/5 44/1/5 47/1/5
f 49/1/6 50/1/6 53/1/6
f 50/2/6 51/2/6 54/2/6
f 53/1/6 50/1/6 54/1/6
f 51/1/6 52/1/6 55/1/6
f 54/2/6 51/2/6 55/2/6
f 55/1/6 52/1/6 56/1/6
f 53/2/6 54/2/6 57/2/6
f 54/2/6 55/2/6 57/2/6
f 55/2/6 56/2/6 57/2/6
f 57/2/6 56/2/6 58/2/6
f 58/2/6 56/2/6 59/2/6
f 59/2/6 56/2/6 60/2/6
f 57/1/6 58/1/6 61/1/6
f 58/2/6 59/2/6 62/2/6
f 61/1/6 58/1/6 62/1/6
f 59/1/6 60/1/6 63/1/6
f 62/2/6 59/2/6 63/2/6
f 63/1/6 60/1/6 64/1/6
