# MagicaVoxel @ Ephtracy

# group
o 

# material
mtllib Canal.mtl
usemtl palette

# normals
vn -1 0 0
vn 1 0 0
vn 0 0 1
vn 0 0 -1
vn 0 -1 0
vn 0 1 0

# texcoords
vt 0.958984 0.5
vt 0.970703 0.5

# verts
v -2 0 2
v -2 0 -2
v -2 0.8 2
v -2 0.8 -2
v 0.8 0.5 2
v 0.8 0.5 -2
v 0.8 0.8 2
v 0.8 0.8 -2
v -0.8 0.5 2
v -0.8 0.5 -2
v -0.8 0.8 2
v -0.8 0.8 -2
v 2 0 2
v 2 0 -2
v 2 0.8 2
v 2 0.8 -2
v -2 0 2
v -2 0.8 2
v -1 0.4 2
v -1 0.8 2
v -0.8 0.5 2
v -0.8 0.8 2
v 0.8 0.5 2
v 0.8 0.8 2
v 1 0.4 2
v 1 0.8 2
v 2 0 2
v 2 0.8 2
v -2 0 -2
v -2 0.8 -2
v -1 0.4 -2
v -1 0.8 -2
v -0.8 0.5 -2
v -0.8 0.8 -2
v 0.8 0.5 -2
v 0.8 0.8 -2
v 1 0.4 -2
v 1 0.8 -2
v 2 0 -2
v 2 0.8 -2
v -2 0 2
v 2 0 2
v -2 0 -2
v 2 0 -2
v -0.8 0.5 2
v 0.8 0.5 2
v -0.8 0.5 -2
v 0.8 0.5 -2
v -2 0.8 2
v -1 0.8 2
v -0.8 0.8 2
v 0.8 0.8 2
v 1 0.8 2
v 2 0.8 2
v -2 0.8 -2
v -1 0.8 -2
v -0.8 0.8 -2
v 0.8 0.8 -2
v 1 0.8 -2
v 2 0.8 -2

# faces
f 3/1/1 2/1/1 1/1/1
f 4/1/1 2/1/1 3/1/1
f 7/2/1 6/2/1 5/2/1
f 8/2/1 6/2/1 7/2/1
f 9/2/2 10/2/2 11/2/2
f 11/2/2 10/2/2 12/2/2
f 13/1/2 14/1/2 15/1/2
f 15/1/2 14/1/2 16/1/2
f 19/1/3 18/1/3 17/1/3
f 20/1/3 18/1/3 19/1/3
f 21/2/3 20/2/3 19/2/3
f 22/2/3 20/2/3 21/2/3
f 23/2/3 21/2/3 19/2/3
f 25/1/3 19/1/3 17/1/3
f 25/2/3 24/2/3 23/2/3
f 25/2/3 23/2/3 19/2/3
f 26/2/3 24/2/3 25/2/3
f 27/1/3 25/1/3 17/1/3
f 27/1/3 26/1/3 25/1/3
f 28/1/3 26/1/3 27/1/3
f 29/1/4 30/1/4 31/1/4
f 31/1/4 30/1/4 32/1/4
f 31/2/4 32/2/4 33/2/4
f 33/2/4 32/2/4 34/2/4
f 31/2/4 33/2/4 35/2/4
f 29/1/4 31/1/4 37/1/4
f 35/2/4 36/2/4 37/2/4
f 31/2/4 35/2/4 37/2/4
f 37/2/4 36/2/4 38/2/4
f 29/1/4 37/1/4 39/1/4
f 37/1/4 38/1/4 39/1/4
f 39/1/4 38/1/4 40/1/4
f 43/1/5 42/1/5 41/1/5
f 44/1/5 42/1/5 43/1/5
f 45/2/6 46/2/6 47/2/6
f 47/2/6 46/2/6 48/2/6
f 49/1/6 50/1/6 55/1/6
f 50/2/6 51/2/6 56/2/6
f 55/1/6 50/1/6 56/1/6
f 56/2/6 51/2/6 57/2/6
f 52/2/6 53/2/6 58/2/6
f 53/1/6 54/1/6 59/1/6
f 58/2/6 53/2/6 59/2/6
f 59/1/6 54/1/6 60/1/6
