# MagicaVoxel @ Ephtracy

# group
o 

# material
mtllib CanalSecond.mtl
usemtl palette

# normals
vn -1 0 0
vn 1 0 0
vn 0 0 1
vn 0 0 -1
vn 0 -1 0
vn 0 1 0

# texcoords
vt 0.958984 0.5
vt 0.970703 0.5

# verts
v -2 0 2
v -2 0 -2
v -2 0.8 2
v -2 0.8 -2
v 0.8 0.5 1.6
v 0.8 0.5 -2
v 0.8 0.8 1.6
v 0.8 0.8 -2
v -0.8 0.5 1.6
v -0.8 0.5 -2
v -0.8 0.8 1.6
v -0.8 0.8 -2
v 2 0 2
v 2 0 -2
v 2 0.8 2
v 2 0.8 -2
v -2 0 2
v -2 0.8 2
v 2 0 2
v 2 0.8 2
v -0.8 0.5 1.6
v -0.8 0.8 1.6
v 0.8 0.5 1.6
v 0.8 0.8 1.6
v -2 0 -2
v -2 0.8 -2
v -1 0.4 -2
v -1 0.8 -2
v -0.8 0.5 -2
v -0.8 0.8 -2
v 0.8 0.5 -2
v 0.8 0.8 -2
v 1 0.4 -2
v 1 0.8 -2
v 2 0 -2
v 2 0.8 -2
v -2 0 2
v 2 0 2
v -2 0 -2
v 2 0 -2
v -0.8 0.5 1.6
v 0.8 0.5 1.6
v -0.8 0.5 -2
v 0.8 0.5 -2
v -2 0.8 2
v 2 0.8 2
v -1 0.8 1.6
v -0.8 0.8 1.6
v 0.8 0.8 1.6
v 1 0.8 1.6
v -2 0.8 -2
v -1 0.8 -2
v -0.8 0.8 -2
v 0.8 0.8 -2
v 1 0.8 -2
v 2 0.8 -2

# faces
f 3/1/1 2/1/1 1/1/1
f 4/1/1 2/1/1 3/1/1
f 7/2/1 6/2/1 5/2/1
f 8/2/1 6/2/1 7/2/1
f 9/2/2 10/2/2 11/2/2
f 11/2/2 10/2/2 12/2/2
f 13/1/2 14/1/2 15/1/2
f 15/1/2 14/1/2 16/1/2
f 19/1/3 18/1/3 17/1/3
f 20/1/3 18/1/3 19/1/3
f 21/1/4 22/1/4 23/1/4
f 23/1/4 22/1/4 24/1/4
f 25/1/4 26/1/4 27/1/4
f 27/1/4 26/1/4 28/1/4
f 27/2/4 28/2/4 29/2/4
f 29/2/4 28/2/4 30/2/4
f 27/2/4 29/2/4 31/2/4
f 25/1/4 27/1/4 33/1/4
f 31/2/4 32/2/4 33/2/4
f 27/2/4 31/2/4 33/2/4
f 33/2/4 32/2/4 34/2/4
f 25/1/4 33/1/4 35/1/4
f 33/1/4 34/1/4 35/1/4
f 35/1/4 34/1/4 36/1/4
f 39/1/5 38/1/5 37/1/5
f 40/1/5 38/1/5 39/1/5
f 41/2/6 42/2/6 43/2/6
f 43/2/6 42/2/6 44/2/6
f 45/1/6 46/1/6 47/1/6
f 47/1/6 46/1/6 48/1/6
f 48/1/6 46/1/6 49/1/6
f 49/1/6 46/1/6 50/1/6
f 45/1/6 47/1/6 51/1/6
f 47/2/6 48/2/6 52/2/6
f 51/1/6 47/1/6 52/1/6
f 52/2/6 48/2/6 53/2/6
f 49/2/6 50/2/6 54/2/6
f 50/1/6 46/1/6 55/1/6
f 54/2/6 50/2/6 55/2/6
f 55/1/6 46/1/6 56/1/6
