# MagicaVoxel @ Ephtracy

# group
o 

# material
mtllib Tree.mtl
usemtl palette

# normals
vn -1 0 0
vn 1 0 0
vn 0 0 1
vn 0 0 -1
vn 0 -1 0
vn 0 1 0

# texcoords
vt 0.537109 0.5
vt 0.958984 0.5
vt 0.978516 0.5
vt 0.990234 0.5

# verts
v -2 0 2
v -2 0 -2
v -2 0.8 2
v -2 0.8 -2
v -0.6 1.2 0.8
v -0.6 1.2 -0.5
v -0.6 1.4 0.8
v -0.6 1.4 -0.5
v -0.4 1.4 0.6
v -0.4 1.4 -0.3
v -0.4 1.8 0.6
v -0.4 1.8 -0.3
v -0.2 1.8 0.4
v -0.2 1.8 -0.1
v -0.2 2.3 0.4
v -0.2 2.3 -0.1
v -0.0999999 0.8 0.3
v -0.0999999 0.8 -2.38419e-007
v -0.0999999 1.2 0.3
v -0.0999999 1.2 -2.38419e-007
v -0.0999999 2.3 0.3
v -0.0999999 2.3 -2.38419e-007
v -0.0999999 2.7 0.3
v -0.0999999 2.7 -2.38419e-007
v 2.38419e-007 2.7 0.2
v 2.38419e-007 2.7 0.0999999
v 2.38419e-007 3 0.2
v 2.38419e-007 3 0.0999999
v 0.1 2.7 0.2
v 0.1 2.7 0.0999999
v 0.1 3 0.2
v 0.1 3 0.0999999
v 0.2 0.8 0.3
v 0.2 0.8 -2.38419e-007
v 0.2 1.2 0.3
v 0.2 1.2 -2.38419e-007
v 0.2 2.3 0.3
v 0.2 2.3 -2.38419e-007
v 0.2 2.7 0.3
v 0.2 2.7 -2.38419e-007
v 0.3 1.8 0.4
v 0.3 1.8 -0.1
v 0.3 2.3 0.4
v 0.3 2.3 -0.1
v 0.5 1.4 0.6
v 0.5 1.4 -0.3
v 0.5 1.8 0.6
v 0.5 1.8 -0.3
v 0.7 1.2 0.8
v 0.7 1.2 -0.5
v 0.7 1.4 0.8
v 0.7 1.4 -0.5
v 2 0 2
v 2 0 -2
v 2 0.8 2
v 2 0.8 -2
v -2 0 2
v -2 0.8 2
v 2 0 2
v 2 0.8 2
v -0.6 1.2 0.8
v -0.6 1.4 0.8
v 0.7 1.2 0.8
v 0.7 1.4 0.8
v -0.4 1.4 0.6
v -0.4 1.8 0.6
v 0.5 1.4 0.6
v 0.5 1.8 0.6
v -0.2 1.8 0.4
v -0.2 2.3 0.4
v 0.3 1.8 0.4
v 0.3 2.3 0.4
v -0.0999999 0.8 0.3
v -0.0999999 1.2 0.3
v -0.0999999 2.3 0.3
v -0.0999999 2.7 0.3
v 0.2 0.8 0.3
v 0.2 1.2 0.3
v 0.2 2.3 0.3
v 0.2 2.7 0.3
v 2.38419e-007 2.7 0.2
v 2.38419e-007 3 0.2
v 0.1 2.7 0.2
v 0.1 3 0.2
v 2.38419e-007 2.7 0.0999999
v 2.38419e-007 3 0.0999999
v 0.1 2.7 0.0999999
v 0.1 3 0.0999999
v -0.0999999 0.8 -2.38419e-007
v -0.0999999 1.2 -2.38419e-007
v -0.0999999 2.3 -2.38419e-007
v -0.0999999 2.7 -2.38419e-007
v 0.2 0.8 -2.38419e-007
v 0.2 1.2 -2.38419e-007
v 0.2 2.3 -2.38419e-007
v 0.2 2.7 -2.38419e-007
v -0.2 1.8 -0.1
v -0.2 2.3 -0.1
v 0.3 1.8 -0.1
v 0.3 2.3 -0.1
v -0.4 1.4 -0.3
v -0.4 1.8 -0.3
v 0.5 1.4 -0.3
v 0.5 1.8 -0.3
v -0.6 1.2 -0.5
v -0.6 1.4 -0.5
v 0.7 1.2 -0.5
v 0.7 1.4 -0.5
v -2 0 -2
v -2 0.8 -2
v 2 0 -2
v 2 0.8 -2
v -2 0 2
v 2 0 2
v -2 0 -2
v 2 0 -2
v -0.6 1.2 0.8
v 0.7 1.2 0.8
v -0.0999999 1.2 0.3
v 0.2 1.2 0.3
v -0.0999999 1.2 -2.38419e-007
v 0.2 1.2 -2.38419e-007
v -0.6 1.2 -0.5
v 0.7 1.2 -0.5
v -2 0.8 2
v 2 0.8 2
v -0.0999999 0.8 0.3
v 0.2 0.8 0.3
v -0.0999999 0.8 -2.38419e-007
v 0.2 0.8 -2.38419e-007
v -2 0.8 -2
v 2 0.8 -2
v -0.6 1.4 0.8
v 0.7 1.4 0.8
v -0.4 1.4 0.6
v 0.5 1.4 0.6
v -0.4 1.4 -0.3
v 0.5 1.4 -0.3
v -0.6 1.4 -0.5
v 0.7 1.4 -0.5
v -0.4 1.8 0.6
v 0.5 1.8 0.6
v -0.2 1.8 0.4
v 0.3 1.8 0.4
v -0.2 1.8 -0.1
v 0.3 1.8 -0.1
v -0.4 1.8 -0.3
v 0.5 1.8 -0.3
v -0.2 2.3 0.4
v 0.3 2.3 0.4
v -0.0999999 2.3 0.3
v 0.2 2.3 0.3
v -0.0999999 2.3 -2.38419e-007
v 0.2 2.3 -2.38419e-007
v -0.2 2.3 -0.1
v 0.3 2.3 -0.1
v -0.0999999 2.7 0.3
v 0.2 2.7 0.3
v 2.38419e-007 2.7 0.2
v 0.1 2.7 0.2
v 2.38419e-007 2.7 0.0999999
v 0.1 2.7 0.0999999
v -0.0999999 2.7 -2.38419e-007
v 0.2 2.7 -2.38419e-007
v 2.38419e-007 3 0.2
v 0.1 3 0.2
v 2.38419e-007 3 0.0999999
v 0.1 3 0.0999999

# faces
f 3/2/1 2/2/1 1/2/1
f 4/2/1 2/2/1 3/2/1
f 7/3/1 6/3/1 5/3/1
f 8/3/1 6/3/1 7/3/1
f 11/3/1 10/3/1 9/3/1
f 12/3/1 10/3/1 11/3/1
f 15/3/1 14/3/1 13/3/1
f 16/3/1 14/3/1 15/3/1
f 19/4/1 18/4/1 17/4/1
f 20/4/1 18/4/1 19/4/1
f 23/3/1 22/3/1 21/3/1
f 24/3/1 22/3/1 23/3/1
f 27/3/1 26/3/1 25/3/1
f 28/3/1 26/3/1 27/3/1
f 29/3/2 30/3/2 31/3/2
f 31/3/2 30/3/2 32/3/2
f 33/4/2 34/4/2 35/4/2
f 35/4/2 34/4/2 36/4/2
f 37/3/2 38/3/2 39/3/2
f 39/3/2 38/3/2 40/3/2
f 41/3/2 42/3/2 43/3/2
f 43/3/2 42/3/2 44/3/2
f 45/3/2 46/3/2 47/3/2
f 47/3/2 46/3/2 48/3/2
f 49/3/2 50/3/2 51/3/2
f 51/3/2 50/3/2 52/3/2
f 53/2/2 54/2/2 55/2/2
f 55/2/2 54/2/2 56/2/2
f 59/2/3 58/2/3 57/2/3
f 60/2/3 58/2/3 59/2/3
f 63/3/3 62/3/3 61/3/3
f 64/3/3 62/3/3 63/3/3
f 67/3/3 66/3/3 65/3/3
f 68/3/3 66/3/3 67/3/3
f 71/3/3 70/3/3 69/3/3
f 72/3/3 70/3/3 71/3/3
f 77/4/3 74/4/3 73/4/3
f 78/4/3 74/4/3 77/4/3
f 79/3/3 76/3/3 75/3/3
f 80/3/3 76/3/3 79/3/3
f 83/3/3 82/3/3 81/3/3
f 84/3/3 82/3/3 83/3/3
f 85/3/4 86/3/4 87/3/4
f 87/3/4 86/3/4 88/3/4
f 89/4/4 90/4/4 93/4/4
f 93/4/4 90/4/4 94/4/4
f 91/3/4 92/3/4 95/3/4
f 95/3/4 92/3/4 96/3/4
f 97/3/4 98/3/4 99/3/4
f 99/3/4 98/3/4 100/3/4
f 101/3/4 102/3/4 103/3/4
f 103/3/4 102/3/4 104/3/4
f 105/3/4 106/3/4 107/3/4
f 107/3/4 106/3/4 108/3/4
f 109/2/4 110/2/4 111/2/4
f 111/2/4 110/2/4 112/2/4
f 115/2/5 114/2/5 113/2/5
f 116/2/5 114/2/5 115/2/5
f 119/3/5 118/3/5 117/3/5
f 120/3/5 118/3/5 119/3/5
f 121/3/5 119/3/5 117/3/5
f 122/3/5 118/3/5 120/3/5
f 123/3/5 121/3/5 117/3/5
f 123/3/5 122/3/5 121/3/5
f 124/3/5 118/3/5 122/3/5
f 124/3/5 122/3/5 123/3/5
f 125/2/6 126/2/6 127/2/6
f 127/2/6 126/2/6 128/2/6
f 125/2/6 127/2/6 129/2/6
f 128/2/6 126/2/6 130/2/6
f 125/2/6 129/2/6 131/2/6
f 129/2/6 130/2/6 131/2/6
f 130/2/6 126/2/6 132/2/6
f 131/2/6 130/2/6 132/2/6
f 133/3/6 134/3/6 135/3/6
f 135/3/6 134/3/6 136/3/6
f 133/3/6 135/3/6 137/3/6
f 136/3/6 134/3/6 138/3/6
f 133/3/6 137/3/6 139/3/6
f 137/3/6 138/3/6 139/3/6
f 138/3/6 134/3/6 140/3/6
f 139/3/6 138/3/6 140/3/6
f 141/3/6 142/3/6 143/3/6
f 143/3/6 142/3/6 144/3/6
f 141/3/6 143/3/6 145/3/6
f 144/3/6 142/3/6 146/3/6
f 141/3/6 145/3/6 147/3/6
f 145/3/6 146/3/6 147/3/6
f 146/3/6 142/3/6 148/3/6
f 147/3/6 146/3/6 148/3/6
f 149/3/6 150/3/6 151/3/6
f 151/3/6 150/3/6 152/3/6
f 149/3/6 151/3/6 153/3/6
f 152/3/6 150/3/6 154/3/6
f 149/3/6 153/3/6 155/3/6
f 153/3/6 154/3/6 155/3/6
f 154/3/6 150/3/6 156/3/6
f 155/3/6 154/3/6 156/3/6
f 157/3/6 158/3/6 159/3/6
f 159/3/6 158/3/6 160/3/6
f 157/3/6 159/3/6 161/3/6
f 160/3/6 158/3/6 162/3/6
f 157/3/6 161/3/6 163/3/6
f 161/3/6 162/3/6 163/3/6
f 162/3/6 158/3/6 164/3/6
f 163/3/6 162/3/6 164/3/6
f 165/3/6 166/3/6 167/3/6
f 167/3/6 166/3/6 168/3/6
